<svg width="48" height="48" viewBox="0 0 48 48" fill="none" xmlns="http://www.w3.org/2000/svg">
<path d="M27.5034 9.86523C19.5738 9.86523 9.35941 16.49 9.35941 24.9684C9.35941 31.1564 19.3386 28.7428 19.1874 33.262C19.1034 35.7372 14.0858 38.8956 14.0858 42.5468C14.0858 46.198 18.1962 47.2508 21.9706 47.2508C29.4522 47.2508 45.7651 41.8636 46.3139 32.6236C46.5211 29.1628 41.5763 26.4524 41.9627 21.6868C42.3883 16.4172 39.1347 9.86523 27.5034 9.86523Z" fill="#A9E2FF"/>
<path d="M37.8803 40.9846L19.081 42.7318C18.5882 42.7766 18.1514 42.4126 18.1066 41.9198L15.7154 16.1374C15.6706 15.6446 16.0346 15.2078 16.5274 15.163L35.3267 13.4158C35.8195 13.371 36.2563 13.735 36.3011 14.2278L38.6923 40.0102C38.7315 40.503 38.3731 40.9398 37.8803 40.9846Z" fill="white"/>
<path d="M23.8746 18.7024C23.1522 18.7024 22.5306 18.1481 22.4578 17.4145C22.4242 17.0337 22.5362 16.6697 22.777 16.3729C23.0178 16.0817 23.3594 15.9025 23.7402 15.8633C24.1154 15.8297 24.485 15.9417 24.7818 16.1825C25.0785 16.4233 25.2521 16.7649 25.2913 17.1457C25.3249 17.5265 25.2129 17.8905 24.9721 18.1873C24.7314 18.4785 24.3897 18.6577 24.009 18.6969C23.9642 18.7025 23.9194 18.7024 23.8746 18.7024ZM23.8802 16.7593C23.8634 16.7593 23.8466 16.7593 23.8298 16.7593C23.6898 16.7705 23.561 16.8377 23.4714 16.9497C23.3818 17.0617 23.337 17.1961 23.3538 17.3361C23.3818 17.6273 23.6394 17.8401 23.925 17.8121C24.065 17.8009 24.1937 17.7337 24.2833 17.6217C24.3729 17.5097 24.4177 17.3753 24.4009 17.2353C24.3897 17.0953 24.3226 16.9665 24.2106 16.8769C24.1154 16.7985 23.9978 16.7593 23.8802 16.7593Z" fill="#1F1F31"/>
<path d="M28.4778 18.2767C27.7554 18.2767 27.1338 17.7223 27.061 16.9887C27.0274 16.6079 27.1394 16.2439 27.3802 15.9471C27.621 15.6503 27.9626 15.4767 28.3434 15.4375C28.7186 15.4039 29.0882 15.5159 29.385 15.7567C29.6762 15.9975 29.8554 16.3391 29.8946 16.7199C29.9282 17.1007 29.8162 17.4647 29.5754 17.7615C29.3346 18.0583 28.993 18.2319 28.6122 18.2711C28.5618 18.2767 28.517 18.2767 28.4778 18.2767ZM28.4778 16.3279C28.461 16.3279 28.4442 16.3279 28.4274 16.3279C28.2874 16.3391 28.1586 16.4063 28.069 16.5183C27.9794 16.6303 27.9346 16.7647 27.9514 16.9047C27.9794 17.1959 28.237 17.4087 28.5226 17.3807C28.6626 17.3695 28.7914 17.3023 28.881 17.1903C28.9706 17.0783 29.0154 16.9439 28.9986 16.8039C28.9874 16.6639 28.9202 16.5351 28.8082 16.4455C28.7186 16.3727 28.601 16.3279 28.4778 16.3279Z" fill="#1F1F31"/>
<path d="M33.0754 17.851C32.745 17.851 32.4258 17.739 32.1682 17.5206C31.877 17.2798 31.6978 16.9382 31.6586 16.5574C31.625 16.1766 31.737 15.8126 31.9778 15.5158C32.2186 15.219 32.5602 15.0454 32.941 15.0062C33.7194 14.9334 34.4138 15.5102 34.4866 16.2886C34.5202 16.6694 34.4082 17.0334 34.1674 17.3302C33.9266 17.6214 33.585 17.8006 33.2042 17.8398C33.165 17.8454 33.1202 17.851 33.0754 17.851ZM33.0754 15.9022C33.0586 15.9022 33.0418 15.9022 33.025 15.9022C32.885 15.9134 32.7562 15.9806 32.6666 16.0926C32.577 16.2046 32.5322 16.339 32.549 16.479C32.5602 16.619 32.6274 16.7478 32.7394 16.8374C32.8458 16.927 32.9858 16.9718 33.1258 16.955C33.2658 16.9438 33.3946 16.8766 33.4842 16.7646C33.5738 16.6526 33.6186 16.5182 33.6018 16.3782C33.5738 16.1094 33.3442 15.9022 33.0754 15.9022Z" fill="#1F1F31"/>
<path d="M19.4593 14.8879L18.5672 14.9707L18.7349 16.7773L19.627 16.6945L19.4593 14.8879Z" fill="#1F1F31"/>
<path d="M24.057 14.4621L23.1649 14.5449L23.3326 16.3515L24.2247 16.2687L24.057 14.4621Z" fill="#1F1F31"/>
<path d="M28.6602 14.0363L27.7681 14.1191L27.9358 15.9257L28.8279 15.8429L28.6602 14.0363Z" fill="#1F1F31"/>
<path d="M33.2577 13.6066L32.3654 13.6895L32.5332 15.4961L33.4254 15.4132L33.2577 13.6066Z" fill="#1F1F31"/>
<path d="M0.565757 17.1338L0.256012 17.9746L5.03281 19.7344L5.34255 18.8936L0.565757 17.1338Z" fill="white"/>
<path d="M12.5882 4.94232L11.8204 5.4043L14.4451 9.76576L15.2128 9.30378L12.5882 4.94232Z" fill="white"/>
<path d="M30.6842 0.703125H29.7882V5.79353H30.6842V0.703125Z" fill="white"/>
<path d="M46.904 8.39331L43.5194 12.1953L44.1887 12.7911L47.5733 8.98905L46.904 8.39331Z" fill="white"/>
<path d="M19.277 19.1321C18.549 19.1321 17.933 18.5777 17.8602 17.8441C17.8266 17.4633 17.9386 17.0993 18.1794 16.8025C18.4202 16.5113 18.7618 16.3322 19.1426 16.293C19.5178 16.2594 19.8874 16.3713 20.1842 16.6121C20.4754 16.8529 20.6546 17.1945 20.6938 17.5753C20.7666 18.3537 20.1898 19.0481 19.4114 19.1209C19.3666 19.1265 19.3218 19.1321 19.277 19.1321ZM19.277 17.1833C19.2602 17.1833 19.2434 17.1833 19.2266 17.1833C19.0866 17.1945 18.9578 17.2617 18.8682 17.3737C18.7786 17.4857 18.7338 17.6201 18.7506 17.7601C18.7618 17.9001 18.829 18.0289 18.941 18.1185C19.0474 18.2081 19.1874 18.2529 19.3274 18.2361C19.6186 18.2081 19.8314 17.9505 19.8034 17.6649C19.7922 17.5249 19.725 17.3961 19.613 17.3065C19.5178 17.2225 19.4002 17.1833 19.277 17.1833Z" fill="#1F1F31"/>
<path d="M18.101 41.9197C18.1458 42.4125 18.5826 42.7765 19.0754 42.7317L37.8746 40.9845C38.3674 40.9397 38.7314 40.5029 38.6866 40.0101L38.5018 37.9941L17.9162 39.9037L18.101 41.9197Z" fill="#78CEFF"/>
<path d="M18.9914 43.1849C18.3082 43.1849 17.7202 42.6585 17.653 41.9641L15.2618 16.1817C15.2282 15.8233 15.3346 15.4761 15.5642 15.2017C15.7938 14.9273 16.1186 14.7537 16.4714 14.7201L35.2706 12.9729C35.629 12.9393 35.9762 13.0457 36.2506 13.2753C36.525 13.5049 36.6986 13.8297 36.7322 14.1825L39.1234 39.9649C39.1906 40.7041 38.6474 41.3593 37.9082 41.4265L19.109 43.1737C19.0754 43.1793 19.0362 43.1849 18.9914 43.1849ZM35.405 13.8633C35.3938 13.8633 35.377 13.8633 35.3602 13.8633L16.561 15.6105C16.3146 15.6329 16.1354 15.8513 16.1578 16.0977L18.549 41.8801C18.5714 42.1265 18.7898 42.3057 19.0362 42.2833L37.8354 40.5361C38.0818 40.5137 38.261 40.2953 38.2386 40.0489L35.8474 14.2665C35.8362 14.1489 35.7802 14.0369 35.685 13.9641C35.6066 13.8969 35.5058 13.8633 35.405 13.8633Z" fill="#1F1F31"/>
</svg>
